<svg width="166" height="17" viewBox="0 0 166 17" fill="none" xmlns="http://www.w3.org/2000/svg">
<path d="M4.24805 7.90909C4.24805 7.36553 4.38062 6.87003 4.64577 6.42259C4.91093 5.97514 5.26722 5.61884 5.71467 5.35369C6.16211 5.08854 6.65761 4.95597 7.20117 4.95597C7.67182 4.95597 8.106 5.05705 8.50373 5.25923C8.90477 5.46141 9.23621 5.73816 9.49805 6.08949C9.75988 6.4375 9.92229 6.83191 9.98526 7.27273H8.78214C8.71585 6.93134 8.5319 6.65294 8.23029 6.4375C7.92868 6.21875 7.58564 6.10938 7.20117 6.10938C6.86973 6.10938 6.56812 6.19058 6.29634 6.35298C6.02456 6.51539 5.80747 6.73248 5.64506 7.00426C5.48266 7.27604 5.40146 7.57765 5.40146 7.90909C5.40146 8.24053 5.48266 8.54214 5.64506 8.81392C5.80747 9.0857 6.02456 9.30279 6.29634 9.4652C6.56812 9.6276 6.86973 9.70881 7.20117 9.70881C7.58564 9.70881 7.91045 9.60109 8.1756 9.38565C8.44407 9.1669 8.6131 8.88684 8.68271 8.54545H9.88583C9.82286 8.98627 9.66874 9.38234 9.42347 9.73366C9.17821 10.0817 8.86334 10.3568 8.47887 10.5589C8.09772 10.7611 7.67182 10.8622 7.20117 10.8622C6.65761 10.8622 6.16211 10.7296 5.71467 10.4645C5.26722 10.1993 4.91093 9.84304 4.64577 9.3956C4.38062 8.94815 4.24805 8.45265 4.24805 7.90909ZM7.15146 13.1591C6.42892 13.1591 5.74947 13.0232 5.1131 12.7514C4.48005 12.4796 3.92158 12.1035 3.43768 11.6229C2.95709 11.139 2.57925 10.5805 2.30415 9.94744C2.03237 9.31439 1.89814 8.63494 1.90146 7.90909C1.90477 7.18324 2.04232 6.50379 2.3141 5.87074C2.58919 5.23769 2.96703 4.68087 3.44762 4.20028C3.92821 3.71638 4.48503 3.33854 5.11808 3.06676C5.75112 2.79498 6.42892 2.65909 7.15146 2.65909C7.87731 2.65909 8.55676 2.79498 9.18981 3.06676C9.82617 3.33854 10.383 3.71638 10.8603 4.20028C11.3409 4.68087 11.717 5.23769 11.9888 5.87074C12.2606 6.50379 12.3981 7.18324 12.4015 7.90909C12.4048 8.63494 12.2705 9.31439 11.9988 9.94744C11.727 10.5805 11.3508 11.139 10.8702 11.6229C10.3896 12.1035 9.83114 12.4796 9.19478 12.7514C8.55842 13.0232 7.87731 13.1591 7.15146 13.1591ZM7.15146 12.0057C7.71822 12.0057 8.25018 11.8996 8.74734 11.6875C9.2445 11.4754 9.68034 11.1821 10.0549 10.8075C10.4294 10.433 10.7227 9.99882 10.9348 9.50497C11.147 9.00781 11.2514 8.47751 11.248 7.91406C11.2447 7.3473 11.137 6.81534 10.9249 6.31818C10.7128 5.82102 10.4194 5.38518 10.0449 5.01065C9.6704 4.63613 9.23621 4.3428 8.74237 4.13068C8.24852 3.91856 7.71822 3.8125 7.15146 3.8125C6.58801 3.8125 6.05936 3.91856 5.56552 4.13068C5.07167 4.3428 4.63749 4.63778 4.26296 5.01562C3.88844 5.39015 3.59345 5.82599 3.37802 6.32315C3.1659 6.817 3.05818 7.3473 3.05487 7.91406C3.05155 8.47419 3.15595 9.00284 3.36808 9.5C3.5802 9.99384 3.87352 10.428 4.24805 10.8026C4.62589 11.1771 5.06173 11.4721 5.55558 11.6875C6.05273 11.8996 6.58469 12.0057 7.15146 12.0057ZM18.5501 13V12.1051L21.9109 8.42614C22.3053 7.99526 22.6301 7.62074 22.8853 7.30256C23.1405 6.98106 23.3294 6.67945 23.4521 6.39773C23.578 6.11269 23.641 5.81439 23.641 5.50284C23.641 5.14489 23.5548 4.83499 23.3825 4.57315C23.2134 4.31132 22.9814 4.10914 22.6864 3.96662C22.3915 3.8241 22.06 3.75284 21.6921 3.75284C21.301 3.75284 20.9596 3.83404 20.668 3.99645C20.3796 4.15554 20.1559 4.37926 19.9968 4.66761C19.841 4.95597 19.7631 5.29403 19.7631 5.68182H18.5898C18.5898 5.08523 18.7274 4.56155 19.0025 4.1108C19.2776 3.66004 19.6521 3.30871 20.1261 3.05682C20.6033 2.80492 21.1386 2.67898 21.7319 2.67898C22.3285 2.67898 22.8571 2.80492 23.3178 3.05682C23.7785 3.30871 24.1398 3.64844 24.4016 4.07599C24.6635 4.50355 24.7944 4.97917 24.7944 5.50284C24.7944 5.87737 24.7264 6.24361 24.5906 6.60156C24.458 6.9562 24.226 7.35227 23.8945 7.78977C23.5664 8.22396 23.1107 8.75426 22.5273 9.38068L20.2404 11.8267V11.9062H24.9734V13H18.5501ZM30.3477 13.1392C29.5986 13.1392 28.9606 12.9354 28.4336 12.5277C27.9066 12.1167 27.5039 11.5218 27.2255 10.7429C26.9471 9.9607 26.8079 9.0161 26.8079 7.90909C26.8079 6.80871 26.9471 5.86908 27.2255 5.0902C27.5072 4.308 27.9116 3.71141 28.4386 3.30043C28.9689 2.88613 29.6052 2.67898 30.3477 2.67898C31.0901 2.67898 31.7248 2.88613 32.2518 3.30043C32.7821 3.71141 33.1864 4.308 33.4648 5.0902C33.7466 5.86908 33.8874 6.80871 33.8874 7.90909C33.8874 9.0161 33.7482 9.9607 33.4698 10.7429C33.1914 11.5218 32.7887 12.1167 32.2617 12.5277C31.7347 12.9354 31.0967 13.1392 30.3477 13.1392ZM30.3477 12.0455C31.0901 12.0455 31.6668 11.6875 32.0778 10.9716C32.4888 10.2557 32.6942 9.23485 32.6942 7.90909C32.6942 7.02746 32.5998 6.27675 32.4109 5.65696C32.2253 5.03717 31.9568 4.56487 31.6055 4.24006C31.2575 3.91525 30.8382 3.75284 30.3477 3.75284C29.6119 3.75284 29.0368 4.11577 28.6225 4.84162C28.2082 5.56416 28.0011 6.58665 28.0011 7.90909C28.0011 8.79072 28.0939 9.53977 28.2795 10.1562C28.4651 10.7727 28.7319 11.2417 29.0799 11.5632C29.4312 11.8847 29.8538 12.0455 30.3477 12.0455ZM35.7766 13V12.1051L39.1374 8.42614C39.5318 7.99526 39.8567 7.62074 40.1119 7.30256C40.3671 6.98106 40.556 6.67945 40.6786 6.39773C40.8046 6.11269 40.8675 5.81439 40.8675 5.50284C40.8675 5.14489 40.7814 4.83499 40.609 4.57315C40.44 4.31132 40.208 4.10914 39.913 3.96662C39.618 3.8241 39.2866 3.75284 38.9187 3.75284C38.5276 3.75284 38.1862 3.83404 37.8945 3.99645C37.6062 4.15554 37.3825 4.37926 37.2234 4.66761C37.0676 4.95597 36.9897 5.29403 36.9897 5.68182H35.8164C35.8164 5.08523 35.954 4.56155 36.229 4.1108C36.5041 3.66004 36.8787 3.30871 37.3526 3.05682C37.8299 2.80492 38.3652 2.67898 38.9585 2.67898C39.555 2.67898 40.0837 2.80492 40.5444 3.05682C41.0051 3.30871 41.3664 3.64844 41.6282 4.07599C41.89 4.50355 42.021 4.97917 42.021 5.50284C42.021 5.87737 41.953 6.24361 41.8171 6.60156C41.6845 6.9562 41.4525 7.35227 41.1211 7.78977C40.793 8.22396 40.3372 8.75426 39.7539 9.38068L37.467 11.8267V11.9062H42.1999V13H35.7766ZM43.7958 10.9119V9.89773L48.2702 2.81818H49.006V4.3892H48.5089L45.1282 9.73864V9.81818H51.1538V10.9119H43.7958ZM48.5884 13V10.6037V10.1314V2.81818H49.7617V13H48.5884ZM53.4134 13.0795C53.1681 13.0795 52.9576 12.9917 52.782 12.8161C52.6063 12.6404 52.5185 12.4299 52.5185 12.1847C52.5185 11.9394 52.6063 11.7289 52.782 11.5533C52.9576 11.3776 53.1681 11.2898 53.4134 11.2898C53.6586 11.2898 53.8691 11.3776 54.0447 11.5533C54.2204 11.7289 54.3082 11.9394 54.3082 12.1847C54.3082 12.3471 54.2668 12.4962 54.1839 12.6321C54.1044 12.768 53.9967 12.8774 53.8608 12.9602C53.7282 13.0398 53.5791 13.0795 53.4134 13.0795ZM63.6523 13H60.5103V2.81818H63.7915C64.7792 2.81818 65.6244 3.02202 66.3271 3.42969C67.0297 3.83404 67.5683 4.41572 67.9428 5.17472C68.3174 5.9304 68.5046 6.83523 68.5046 7.8892C68.5046 8.94981 68.3157 9.86293 67.9379 10.6286C67.56 11.3909 67.0098 11.9775 66.2873 12.3885C65.5647 12.7962 64.6864 13 63.6523 13ZM61.7433 11.9062H63.5728C64.4147 11.9062 65.1123 11.7438 65.6658 11.419C66.2193 11.0942 66.632 10.6319 66.9038 10.032C67.1755 9.43205 67.3114 8.7178 67.3114 7.8892C67.3114 7.06723 67.1772 6.35961 66.9087 5.76633C66.6403 5.16974 66.2392 4.71236 65.7056 4.39418C65.172 4.07268 64.5075 3.91193 63.712 3.91193H61.7433V11.9062ZM70.4137 13V5.36364H71.587V13H70.4137ZM71.0103 4.09091C70.7816 4.09091 70.5844 4.01302 70.4187 3.85724C70.2563 3.70147 70.1751 3.5142 70.1751 3.29545C70.1751 3.0767 70.2563 2.88944 70.4187 2.73366C70.5844 2.57789 70.7816 2.5 71.0103 2.5C71.239 2.5 71.4345 2.57789 71.5969 2.73366C71.7627 2.88944 71.8455 3.0767 71.8455 3.29545C71.8455 3.5142 71.7627 3.70147 71.5969 3.85724C71.4345 4.01302 71.239 4.09091 71.0103 4.09091ZM76.8184 16.0227C76.2516 16.0227 75.7644 15.9498 75.3567 15.804C74.949 15.6615 74.6093 15.4725 74.3375 15.2372C74.0691 15.0052 73.8553 14.7566 73.6962 14.4915L74.6309 13.8352C74.7369 13.9744 74.8712 14.1335 75.0336 14.3125C75.196 14.4948 75.418 14.6522 75.6998 14.7848C75.9848 14.9207 76.3577 14.9886 76.8184 14.9886C77.4348 14.9886 77.9436 14.8395 78.3446 14.5412C78.7457 14.2429 78.9462 13.7756 78.9462 13.1392V11.5881H78.8468C78.7606 11.7273 78.638 11.8996 78.4789 12.1051C78.3231 12.3073 78.0977 12.4879 77.8027 12.647C77.5111 12.8028 77.1167 12.8807 76.6195 12.8807C76.003 12.8807 75.4495 12.7348 74.959 12.4432C74.4718 12.1515 74.0856 11.7273 73.8006 11.1705C73.5189 10.6136 73.378 9.9375 73.378 9.14205C73.378 8.35985 73.5156 7.67874 73.7907 7.09872C74.0658 6.51539 74.4486 6.06463 74.9391 5.74645C75.4296 5.42495 75.9964 5.2642 76.6394 5.2642C77.1365 5.2642 77.531 5.34706 77.8226 5.51278C78.1176 5.67519 78.343 5.8608 78.4988 6.0696C78.6578 6.27509 78.7805 6.44413 78.8667 6.5767H78.986V5.36364H80.1195V13.2188C80.1195 13.875 79.9703 14.4086 79.6721 14.8196C79.3771 15.2339 78.9793 15.5372 78.4789 15.7294C77.9817 15.925 77.4282 16.0227 76.8184 16.0227ZM76.7786 11.8267C77.2492 11.8267 77.647 11.719 77.9718 11.5036C78.2966 11.2881 78.5435 10.9782 78.7125 10.5739C78.8816 10.1695 78.9661 9.68561 78.9661 9.12216C78.9661 8.57197 78.8832 8.08641 78.7175 7.66548C78.5518 7.24455 78.3065 6.91477 77.9817 6.67614C77.6569 6.4375 77.2559 6.31818 76.7786 6.31818C76.2814 6.31818 75.8671 6.44413 75.5357 6.69602C75.2076 6.94792 74.9606 7.28598 74.7949 7.71023C74.6325 8.13447 74.5513 8.60511 74.5513 9.12216C74.5513 9.65246 74.6342 10.1214 74.7999 10.5291C74.9689 10.9335 75.2175 11.2517 75.5456 11.4837C75.8771 11.7124 76.2881 11.8267 76.7786 11.8267ZM82.2672 13V5.36364H83.4405V13H82.2672ZM82.8638 4.09091C82.6351 4.09091 82.4379 4.01302 82.2722 3.85724C82.1098 3.70147 82.0286 3.5142 82.0286 3.29545C82.0286 3.0767 82.1098 2.88944 82.2722 2.73366C82.4379 2.57789 82.6351 2.5 82.8638 2.5C83.0925 2.5 83.2881 2.57789 83.4505 2.73366C83.6162 2.88944 83.699 3.0767 83.699 3.29545C83.699 3.5142 83.6162 3.70147 83.4505 3.85724C83.2881 4.01302 83.0925 4.09091 82.8638 4.09091ZM88.9105 5.36364V6.35795H84.9531V5.36364H88.9105ZM86.1065 3.53409H87.2798V10.8125C87.2798 11.1439 87.3279 11.3925 87.424 11.5582C87.5234 11.7206 87.6494 11.83 87.8018 11.8864C87.9576 11.9394 88.1217 11.9659 88.294 11.9659C88.4233 11.9659 88.5294 11.9593 88.6122 11.946C88.6951 11.9295 88.7614 11.9162 88.8111 11.9062L89.0497 12.9602C88.9702 12.9901 88.8591 13.0199 88.7166 13.0497C88.5741 13.0829 88.3935 13.0994 88.1747 13.0994C87.8433 13.0994 87.5185 13.0282 87.2003 12.8857C86.8854 12.7431 86.6236 12.526 86.4148 12.2344C86.2093 11.9427 86.1065 11.5748 86.1065 11.1307V3.53409ZM93.7951 13.1591C93.0593 13.1591 92.4246 12.9967 91.891 12.6719C91.3607 12.3438 90.9513 11.8864 90.663 11.2997C90.378 10.7098 90.2354 10.0237 90.2354 9.24148C90.2354 8.45928 90.378 7.76989 90.663 7.1733C90.9513 6.57339 91.3524 6.10606 91.8661 5.77131C92.3832 5.43324 92.9864 5.2642 93.6758 5.2642C94.0735 5.2642 94.4663 5.33049 94.854 5.46307C95.2418 5.59564 95.5948 5.81108 95.913 6.10938C96.2312 6.40436 96.4847 6.79545 96.6737 7.28267C96.8626 7.76989 96.957 8.36979 96.957 9.08239V9.57955H91.0707V8.56534H95.7638C95.7638 8.13447 95.6777 7.75 95.5053 7.41193C95.3363 7.07386 95.0943 6.80705 94.7795 6.61151C94.4679 6.41596 94.1 6.31818 93.6758 6.31818C93.2085 6.31818 92.8041 6.43419 92.4627 6.66619C92.1246 6.89489 91.8645 7.19318 91.6822 7.56108C91.4999 7.92898 91.4087 8.32339 91.4087 8.74432V9.42045C91.4087 9.99716 91.5082 10.486 91.707 10.8871C91.9092 11.2848 92.1893 11.5881 92.5472 11.7969C92.9052 12.0024 93.3211 12.1051 93.7951 12.1051C94.1033 12.1051 94.3817 12.062 94.6303 11.9759C94.8822 11.8864 95.0993 11.7538 95.2816 11.5781C95.4639 11.3991 95.6048 11.1771 95.7042 10.9119L96.8377 11.2301C96.7184 11.6146 96.5179 11.9527 96.2362 12.2443C95.9544 12.5327 95.6064 12.758 95.1921 12.9205C94.7778 13.0795 94.3121 13.1591 93.7951 13.1591ZM108.088 7.07386L107.034 7.37216C106.968 7.1965 106.87 7.0258 106.741 6.86009C106.615 6.69105 106.443 6.55185 106.224 6.44247C106.005 6.3331 105.725 6.27841 105.384 6.27841C104.917 6.27841 104.527 6.38613 104.216 6.60156C103.907 6.81368 103.753 7.08381 103.753 7.41193C103.753 7.7036 103.859 7.93395 104.071 8.10298C104.283 8.27202 104.615 8.41288 105.066 8.52557L106.199 8.80398C106.882 8.9697 107.391 9.22325 107.725 9.56463C108.06 9.9027 108.228 10.3385 108.228 10.8722C108.228 11.3097 108.102 11.7008 107.85 12.0455C107.601 12.3902 107.253 12.6619 106.806 12.8608C106.358 13.0597 105.838 13.1591 105.245 13.1591C104.466 13.1591 103.821 12.9901 103.311 12.652C102.8 12.3139 102.477 11.8201 102.341 11.1705L103.455 10.892C103.561 11.303 103.761 11.6113 104.056 11.8168C104.355 12.0223 104.744 12.125 105.225 12.125C105.772 12.125 106.206 12.009 106.527 11.777C106.852 11.5417 107.015 11.2599 107.015 10.9318C107.015 10.6667 106.922 10.4446 106.736 10.2656C106.551 10.0833 106.266 9.94744 105.881 9.85795L104.608 9.55966C103.909 9.39394 103.395 9.13707 103.067 8.78906C102.742 8.43774 102.58 7.99858 102.58 7.47159C102.58 7.04072 102.701 6.65956 102.943 6.32812C103.188 5.99669 103.521 5.73651 103.942 5.54758C104.366 5.35866 104.847 5.2642 105.384 5.2642C106.14 5.2642 106.733 5.42992 107.164 5.76136C107.598 6.0928 107.906 6.5303 108.088 7.07386ZM113.195 13.1591C112.46 13.1591 111.825 12.9967 111.291 12.6719C110.761 12.3438 110.352 11.8864 110.063 11.2997C109.778 10.7098 109.636 10.0237 109.636 9.24148C109.636 8.45928 109.778 7.76989 110.063 7.1733C110.352 6.57339 110.753 6.10606 111.267 5.77131C111.784 5.43324 112.387 5.2642 113.076 5.2642C113.474 5.2642 113.867 5.33049 114.254 5.46307C114.642 5.59564 114.995 5.81108 115.313 6.10938C115.632 6.40436 115.885 6.79545 116.074 7.28267C116.263 7.76989 116.357 8.36979 116.357 9.08239V9.57955H110.471V8.56534H115.164C115.164 8.13447 115.078 7.75 114.906 7.41193C114.737 7.07386 114.495 6.80705 114.18 6.61151C113.868 6.41596 113.5 6.31818 113.076 6.31818C112.609 6.31818 112.204 6.43419 111.863 6.66619C111.525 6.89489 111.265 7.19318 111.083 7.56108C110.9 7.92898 110.809 8.32339 110.809 8.74432V9.42045C110.809 9.99716 110.909 10.486 111.107 10.8871C111.31 11.2848 111.59 11.5881 111.948 11.7969C112.306 12.0024 112.722 12.1051 113.195 12.1051C113.504 12.1051 113.782 12.062 114.031 11.9759C114.283 11.8864 114.5 11.7538 114.682 11.5781C114.864 11.3991 115.005 11.1771 115.105 10.9119L116.238 11.2301C116.119 11.6146 115.918 11.9527 115.637 12.2443C115.355 12.5327 115.007 12.758 114.593 12.9205C114.178 13.0795 113.713 13.1591 113.195 13.1591ZM122.955 9.87784V5.36364H124.128V13H122.955V11.7074H122.875C122.696 12.0952 122.418 12.425 122.04 12.6967C121.662 12.9652 121.185 13.0994 120.608 13.0994C120.131 13.0994 119.707 12.995 119.335 12.7862C118.964 12.5741 118.673 12.2559 118.46 11.8317C118.248 11.4041 118.142 10.8655 118.142 10.2159V5.36364H119.316V10.1364C119.316 10.6932 119.471 11.1373 119.783 11.4688C120.098 11.8002 120.499 11.9659 120.986 11.9659C121.278 11.9659 121.574 11.8913 121.876 11.7422C122.181 11.593 122.436 11.3643 122.642 11.0561C122.85 10.7479 122.955 10.3551 122.955 9.87784ZM131.388 8.40625V13H130.214V5.36364H131.348V6.55682H131.447C131.626 6.16903 131.898 5.85748 132.263 5.62216C132.627 5.38352 133.098 5.2642 133.675 5.2642C134.192 5.2642 134.644 5.37027 135.032 5.58239C135.42 5.79119 135.721 6.10938 135.937 6.53693C136.152 6.96117 136.26 7.49811 136.26 8.14773V13H135.087V8.22727C135.087 7.62737 134.931 7.16004 134.619 6.82528C134.308 6.48722 133.88 6.31818 133.337 6.31818C132.962 6.31818 132.627 6.39938 132.332 6.56179C132.041 6.72419 131.81 6.96117 131.641 7.27273C131.472 7.58428 131.388 7.96212 131.388 8.40625ZM141.506 13.1591C140.817 13.1591 140.212 12.995 139.692 12.6669C139.175 12.3388 138.77 11.8797 138.479 11.2898C138.19 10.6998 138.046 10.0104 138.046 9.22159C138.046 8.42614 138.19 7.73177 138.479 7.13849C138.77 6.54522 139.175 6.08452 139.692 5.75639C140.212 5.42827 140.817 5.2642 141.506 5.2642C142.196 5.2642 142.799 5.42827 143.316 5.75639C143.836 6.08452 144.241 6.54522 144.529 7.13849C144.821 7.73177 144.966 8.42614 144.966 9.22159C144.966 10.0104 144.821 10.6998 144.529 11.2898C144.241 11.8797 143.836 12.3388 143.316 12.6669C142.799 12.995 142.196 13.1591 141.506 13.1591ZM141.506 12.1051C142.03 12.1051 142.461 11.9709 142.799 11.7024C143.137 11.4339 143.387 11.081 143.55 10.6435C143.712 10.206 143.793 9.73201 143.793 9.22159C143.793 8.71117 143.712 8.23556 143.55 7.79474C143.387 7.35393 143.137 6.99763 142.799 6.72585C142.461 6.45407 142.03 6.31818 141.506 6.31818C140.983 6.31818 140.552 6.45407 140.214 6.72585C139.876 6.99763 139.625 7.35393 139.463 7.79474C139.3 8.23556 139.219 8.71117 139.219 9.22159C139.219 9.73201 139.3 10.206 139.463 10.6435C139.625 11.081 139.876 11.4339 140.214 11.7024C140.552 11.9709 140.983 12.1051 141.506 12.1051ZM146.757 13V5.36364H147.891V6.55682H147.99C148.15 6.14915 148.406 5.83262 148.761 5.60724C149.116 5.37855 149.542 5.2642 150.039 5.2642C150.542 5.2642 150.962 5.37855 151.297 5.60724C151.635 5.83262 151.898 6.14915 152.087 6.55682H152.167C152.362 6.16241 152.655 5.84919 153.047 5.61719C153.438 5.38187 153.907 5.2642 154.453 5.2642C155.136 5.2642 155.695 5.47798 156.129 5.90554C156.563 6.32978 156.78 6.991 156.78 7.8892V13H155.607V7.8892C155.607 7.32576 155.453 6.92306 155.145 6.68111C154.836 6.43916 154.473 6.31818 154.056 6.31818C153.519 6.31818 153.103 6.48059 152.808 6.8054C152.513 7.12689 152.365 7.53456 152.365 8.02841V13H151.172V7.76989C151.172 7.3357 151.031 6.98603 150.75 6.72088C150.468 6.45241 150.105 6.31818 149.661 6.31818C149.356 6.31818 149.071 6.39938 148.806 6.56179C148.544 6.72419 148.332 6.94957 148.169 7.23793C148.01 7.52296 147.931 7.85275 147.931 8.22727V13H146.757ZM162.127 13.1591C161.391 13.1591 160.757 12.9967 160.223 12.6719C159.693 12.3438 159.283 11.8864 158.995 11.2997C158.71 10.7098 158.567 10.0237 158.567 9.24148C158.567 8.45928 158.71 7.76989 158.995 7.1733C159.283 6.57339 159.684 6.10606 160.198 5.77131C160.715 5.43324 161.318 5.2642 162.008 5.2642C162.406 5.2642 162.798 5.33049 163.186 5.46307C163.574 5.59564 163.927 5.81108 164.245 6.10938C164.563 6.40436 164.817 6.79545 165.006 7.28267C165.195 7.76989 165.289 8.36979 165.289 9.08239V9.57955H159.403V8.56534H164.096C164.096 8.13447 164.01 7.75 163.837 7.41193C163.668 7.07386 163.426 6.80705 163.112 6.61151C162.8 6.41596 162.432 6.31818 162.008 6.31818C161.54 6.31818 161.136 6.43419 160.795 6.66619C160.457 6.89489 160.196 7.19318 160.014 7.56108C159.832 7.92898 159.741 8.32339 159.741 8.74432V9.42045C159.741 9.99716 159.84 10.486 160.039 10.8871C160.241 11.2848 160.521 11.5881 160.879 11.7969C161.237 12.0024 161.653 12.1051 162.127 12.1051C162.435 12.1051 162.714 12.062 162.962 11.9759C163.214 11.8864 163.431 11.7538 163.614 11.5781C163.796 11.3991 163.937 11.1771 164.036 10.9119L165.17 11.2301C165.05 11.6146 164.85 11.9527 164.568 12.2443C164.286 12.5327 163.938 12.758 163.524 12.9205C163.11 13.0795 162.644 13.1591 162.127 13.1591Z" fill="white"/>
</svg>
